<svg xmlns="http://www.w3.org/2000/svg" xmlns:xlink="http://www.w3.org/1999/xlink" width="2000" zoomAndPan="magnify" viewBox="0 0 1500 1499.999933" height="2000" preserveAspectRatio="xMidYMid meet" version="1.0"><defs><filter x="0%" y="0%" width="100%" height="100%" id="d38d707233"><feColorMatrix values="0 0 0 0 1 0 0 0 0 1 0 0 0 0 1 0 0 0 1 0" color-interpolation-filters="sRGB"/></filter><mask id="677d2439b7"><g filter="url(#d38d707233)"><rect x="-150" width="1800" fill="#000000" y="-149.999993" height="1799.99992" fill-opacity="0.75"/></g></mask><clipPath id="4e566b83ff"><path d="M 0.324219 0.4375 L 1425.789062 0.4375 L 1425.789062 114.902344 L 0.324219 114.902344 Z M 0.324219 0.4375 " clip-rule="nonzero"/></clipPath><clipPath id="147fbadd2d"><path d="M 57.554688 0.4375 L 1368.445312 0.4375 C 1383.621094 0.4375 1398.179688 6.46875 1408.914062 17.199219 C 1419.648438 27.933594 1425.675781 42.492188 1425.675781 57.671875 C 1425.675781 72.851562 1419.648438 87.40625 1408.914062 98.140625 C 1398.179688 108.875 1383.621094 114.902344 1368.445312 114.902344 L 57.554688 114.902344 C 42.378906 114.902344 27.820312 108.875 17.085938 98.140625 C 6.351562 87.40625 0.324219 72.851562 0.324219 57.671875 C 0.324219 42.492188 6.351562 27.933594 17.085938 17.199219 C 27.820312 6.46875 42.378906 0.4375 57.554688 0.4375 Z M 57.554688 0.4375 " clip-rule="nonzero"/></clipPath><clipPath id="5e094a6af9"><path d="M 0.324219 0.4375 L 1425.789062 0.4375 L 1425.789062 114.902344 L 0.324219 114.902344 Z M 0.324219 0.4375 " clip-rule="nonzero"/></clipPath><clipPath id="7c0d44ff08"><path d="M 57.554688 0.4375 L 1368.445312 0.4375 C 1383.621094 0.4375 1398.179688 6.46875 1408.914062 17.199219 C 1419.648438 27.933594 1425.675781 42.492188 1425.675781 57.671875 C 1425.675781 72.851562 1419.648438 87.40625 1408.914062 98.140625 C 1398.179688 108.875 1383.621094 114.902344 1368.445312 114.902344 L 57.554688 114.902344 C 42.378906 114.902344 27.820312 108.875 17.085938 98.140625 C 6.351562 87.40625 0.324219 72.851562 0.324219 57.671875 C 0.324219 42.492188 6.351562 27.933594 17.085938 17.199219 C 27.820312 6.46875 42.378906 0.4375 57.554688 0.4375 Z M 57.554688 0.4375 " clip-rule="nonzero"/></clipPath><clipPath id="8c6b335ca3"><rect x="0" width="1426" y="0" height="115"/></clipPath><clipPath id="33d6d7db0e"><rect x="0" width="1426" y="0" height="116"/></clipPath><mask id="38027b8ce6"><g filter="url(#d38d707233)"><rect x="-150" width="1800" fill="#000000" y="-149.999993" height="1799.99992" fill-opacity="0.75"/></g></mask><clipPath id="398cafd4d8"><path d="M 0.324219 0.761719 L 1425.789062 0.761719 L 1425.789062 115.226562 L 0.324219 115.226562 Z M 0.324219 0.761719 " clip-rule="nonzero"/></clipPath><clipPath id="32f54e3ced"><path d="M 57.554688 0.761719 L 1368.445312 0.761719 C 1383.621094 0.761719 1398.179688 6.789062 1408.914062 17.523438 C 1419.648438 28.257812 1425.675781 42.816406 1425.675781 57.992188 C 1425.675781 73.171875 1419.648438 87.730469 1408.914062 98.464844 C 1398.179688 109.199219 1383.621094 115.226562 1368.445312 115.226562 L 57.554688 115.226562 C 42.378906 115.226562 27.820312 109.199219 17.085938 98.464844 C 6.351562 87.730469 0.324219 73.171875 0.324219 57.992188 C 0.324219 42.816406 6.351562 28.257812 17.085938 17.523438 C 27.820312 6.789062 42.378906 0.761719 57.554688 0.761719 Z M 57.554688 0.761719 " clip-rule="nonzero"/></clipPath><clipPath id="8d0c29950e"><path d="M 0.324219 0.761719 L 1425.789062 0.761719 L 1425.789062 115.226562 L 0.324219 115.226562 Z M 0.324219 0.761719 " clip-rule="nonzero"/></clipPath><clipPath id="5fa4fb7dad"><path d="M 57.554688 0.761719 L 1368.445312 0.761719 C 1383.621094 0.761719 1398.179688 6.789062 1408.914062 17.523438 C 1419.648438 28.257812 1425.675781 42.816406 1425.675781 57.992188 C 1425.675781 73.171875 1419.648438 87.730469 1408.914062 98.464844 C 1398.179688 109.199219 1383.621094 115.226562 1368.445312 115.226562 L 57.554688 115.226562 C 42.378906 115.226562 27.820312 109.199219 17.085938 98.464844 C 6.351562 87.730469 0.324219 73.171875 0.324219 57.992188 C 0.324219 42.816406 6.351562 28.257812 17.085938 17.523438 C 27.820312 6.789062 42.378906 0.761719 57.554688 0.761719 Z M 57.554688 0.761719 " clip-rule="nonzero"/></clipPath><clipPath id="c75719bdb8"><rect x="0" width="1426" y="0" height="116"/></clipPath><clipPath id="7b624a23c4"><rect x="0" width="1426" y="0" height="116"/></clipPath><mask id="3e27cd59b8"><g filter="url(#d38d707233)"><rect x="-150" width="1800" fill="#000000" y="-149.999993" height="1799.99992" fill-opacity="0.75"/></g></mask><clipPath id="beea0487c9"><path d="M 0.660156 0.871094 L 713.394531 0.871094 L 713.394531 115.339844 L 0.660156 115.339844 Z M 0.660156 0.871094 " clip-rule="nonzero"/></clipPath><clipPath id="f0b27e806c"><path d="M 57.894531 0.871094 L 656.105469 0.871094 C 671.285156 0.871094 685.839844 6.902344 696.574219 17.636719 C 707.308594 28.367188 713.339844 42.925781 713.339844 58.105469 C 713.339844 73.285156 707.308594 87.84375 696.574219 98.574219 C 685.839844 109.308594 671.285156 115.339844 656.105469 115.339844 L 57.894531 115.339844 C 42.714844 115.339844 28.15625 109.308594 17.425781 98.574219 C 6.691406 87.84375 0.660156 73.285156 0.660156 58.105469 C 0.660156 42.925781 6.691406 28.367188 17.425781 17.636719 C 28.15625 6.902344 42.714844 0.871094 57.894531 0.871094 Z M 57.894531 0.871094 " clip-rule="nonzero"/></clipPath><clipPath id="45558e30e9"><path d="M 0.660156 0.871094 L 713.394531 0.871094 L 713.394531 115.339844 L 0.660156 115.339844 Z M 0.660156 0.871094 " clip-rule="nonzero"/></clipPath><clipPath id="fd2b555cdf"><path d="M 57.894531 0.871094 L 656.105469 0.871094 C 671.285156 0.871094 685.839844 6.902344 696.574219 17.636719 C 707.308594 28.367188 713.339844 42.925781 713.339844 58.105469 C 713.339844 73.285156 707.308594 87.84375 696.574219 98.574219 C 685.839844 109.308594 671.285156 115.339844 656.105469 115.339844 L 57.894531 115.339844 C 42.714844 115.339844 28.15625 109.308594 17.425781 98.574219 C 6.691406 87.84375 0.660156 73.285156 0.660156 58.105469 C 0.660156 42.925781 6.691406 28.367188 17.425781 17.636719 C 28.15625 6.902344 42.714844 0.871094 57.894531 0.871094 Z M 57.894531 0.871094 " clip-rule="nonzero"/></clipPath><clipPath id="788c73cd19"><rect x="0" width="714" y="0" height="116"/></clipPath><clipPath id="6de6c5eed6"><rect x="0" width="714" y="0" height="116"/></clipPath><mask id="75b60b87ab"><g filter="url(#d38d707233)"><rect x="-150" width="1800" fill="#000000" y="-149.999993" height="1799.99992" fill-opacity="0.75"/></g></mask><clipPath id="9918eecefd"><path d="M 0.660156 0.984375 L 713.394531 0.984375 L 713.394531 115.449219 L 0.660156 115.449219 Z M 0.660156 0.984375 " clip-rule="nonzero"/></clipPath><clipPath id="2b9a688a12"><path d="M 57.894531 0.984375 L 656.105469 0.984375 C 671.285156 0.984375 685.839844 7.015625 696.574219 17.746094 C 707.308594 28.480469 713.339844 43.039062 713.339844 58.21875 C 713.339844 73.398438 707.308594 87.953125 696.574219 98.6875 C 685.839844 109.421875 671.285156 115.449219 656.105469 115.449219 L 57.894531 115.449219 C 42.714844 115.449219 28.15625 109.421875 17.425781 98.6875 C 6.691406 87.953125 0.660156 73.398438 0.660156 58.21875 C 0.660156 43.039062 6.691406 28.480469 17.425781 17.746094 C 28.15625 7.015625 42.714844 0.984375 57.894531 0.984375 Z M 57.894531 0.984375 " clip-rule="nonzero"/></clipPath><clipPath id="270968f5ff"><path d="M 0.660156 0.984375 L 713.394531 0.984375 L 713.394531 115.449219 L 0.660156 115.449219 Z M 0.660156 0.984375 " clip-rule="nonzero"/></clipPath><clipPath id="62002e4341"><path d="M 57.894531 0.984375 L 656.105469 0.984375 C 671.285156 0.984375 685.839844 7.015625 696.574219 17.746094 C 707.308594 28.480469 713.339844 43.039062 713.339844 58.21875 C 713.339844 73.398438 707.308594 87.953125 696.574219 98.6875 C 685.839844 109.421875 671.285156 115.449219 656.105469 115.449219 L 57.894531 115.449219 C 42.714844 115.449219 28.15625 109.421875 17.425781 98.6875 C 6.691406 87.953125 0.660156 73.398438 0.660156 58.21875 C 0.660156 43.039062 6.691406 28.480469 17.425781 17.746094 C 28.15625 7.015625 42.714844 0.984375 57.894531 0.984375 Z M 57.894531 0.984375 " clip-rule="nonzero"/></clipPath><clipPath id="2bab9a9dd1"><rect x="0" width="714" y="0" height="116"/></clipPath><clipPath id="ea12dea69a"><rect x="0" width="714" y="0" height="116"/></clipPath><mask id="965892f16c"><g filter="url(#d38d707233)"><rect x="-150" width="1800" fill="#000000" y="-149.999993" height="1799.99992" fill-opacity="0.75"/></g></mask><clipPath id="3462d5b4dc"><path d="M 0.660156 1.097656 L 713.394531 1.097656 L 713.394531 115.5625 L 0.660156 115.5625 Z M 0.660156 1.097656 " clip-rule="nonzero"/></clipPath><clipPath id="edf357388a"><path d="M 57.894531 1.097656 L 656.105469 1.097656 C 671.285156 1.097656 685.839844 7.125 696.574219 17.859375 C 707.308594 28.59375 713.339844 43.148438 713.339844 58.328125 C 713.339844 73.507812 707.308594 88.066406 696.574219 98.800781 C 685.839844 109.53125 671.285156 115.5625 656.105469 115.5625 L 57.894531 115.5625 C 42.714844 115.5625 28.15625 109.53125 17.425781 98.800781 C 6.691406 88.066406 0.660156 73.507812 0.660156 58.328125 C 0.660156 43.148438 6.691406 28.59375 17.425781 17.859375 C 28.15625 7.125 42.714844 1.097656 57.894531 1.097656 Z M 57.894531 1.097656 " clip-rule="nonzero"/></clipPath><clipPath id="da32ddd30d"><path d="M 0.660156 0.0976562 L 713.394531 0.0976562 L 713.394531 114.5625 L 0.660156 114.5625 Z M 0.660156 0.0976562 " clip-rule="nonzero"/></clipPath><clipPath id="67f35b9b3b"><path d="M 57.894531 0.0976562 L 656.105469 0.0976562 C 671.285156 0.0976562 685.839844 6.125 696.574219 16.859375 C 707.308594 27.59375 713.339844 42.148438 713.339844 57.328125 C 713.339844 72.507812 707.308594 87.066406 696.574219 97.800781 C 685.839844 108.53125 671.285156 114.5625 656.105469 114.5625 L 57.894531 114.5625 C 42.714844 114.5625 28.15625 108.53125 17.425781 97.800781 C 6.691406 87.066406 0.660156 72.507812 0.660156 57.328125 C 0.660156 42.148438 6.691406 27.59375 17.425781 16.859375 C 28.15625 6.125 42.714844 0.0976562 57.894531 0.0976562 Z M 57.894531 0.0976562 " clip-rule="nonzero"/></clipPath><clipPath id="1ea109f6e9"><rect x="0" width="714" y="0" height="115"/></clipPath><clipPath id="a86d95b3a1"><rect x="0" width="714" y="0" height="116"/></clipPath></defs><g mask="url(#677d2439b7)"><g transform="matrix(1, 0, 0, 1, 37, 334)"><g clip-path="url(#33d6d7db0e)"><g clip-path="url(#4e566b83ff)"><g clip-path="url(#147fbadd2d)"><g transform="matrix(1, 0, 0, 1, 0, 0.000000000000113687)"><g clip-path="url(#8c6b335ca3)"><g clip-path="url(#5e094a6af9)"><g clip-path="url(#7c0d44ff08)"><path fill="#ffbd59" d="M 0.324219 0.4375 L 1425.789062 0.4375 L 1425.789062 114.902344 L 0.324219 114.902344 Z M 0.324219 0.4375 " fill-opacity="1" fill-rule="nonzero"/></g></g></g></g></g></g></g></g></g><g mask="url(#38027b8ce6)"><g transform="matrix(1, 0, 0, 1, 37, 513)"><g clip-path="url(#7b624a23c4)"><g clip-path="url(#398cafd4d8)"><g clip-path="url(#32f54e3ced)"><g transform="matrix(1, 0, 0, 1, 0, 0.000000000000113687)"><g clip-path="url(#c75719bdb8)"><g clip-path="url(#8d0c29950e)"><g clip-path="url(#5fa4fb7dad)"><path fill="#ff5757" d="M 0.324219 0.761719 L 1425.789062 0.761719 L 1425.789062 115.226562 L 0.324219 115.226562 Z M 0.324219 0.761719 " fill-opacity="1" fill-rule="nonzero"/></g></g></g></g></g></g></g></g></g><g mask="url(#3e27cd59b8)"><g transform="matrix(1, 0, 0, 1, 393, 692)"><g clip-path="url(#6de6c5eed6)"><g clip-path="url(#beea0487c9)"><g clip-path="url(#f0b27e806c)"><g transform="matrix(1, 0, 0, 1, 0, 0.000000000000113687)"><g clip-path="url(#788c73cd19)"><g clip-path="url(#45558e30e9)"><g clip-path="url(#fd2b555cdf)"><path fill="#e2a9f1" d="M 0.660156 0.871094 L 713.394531 0.871094 L 713.394531 115.339844 L 0.660156 115.339844 Z M 0.660156 0.871094 " fill-opacity="1" fill-rule="nonzero"/></g></g></g></g></g></g></g></g></g><g mask="url(#75b60b87ab)"><g transform="matrix(1, 0, 0, 1, 393, 871)"><g clip-path="url(#ea12dea69a)"><g clip-path="url(#9918eecefd)"><g clip-path="url(#2b9a688a12)"><g transform="matrix(1, 0, 0, 1, 0, 0.000000000000113687)"><g clip-path="url(#2bab9a9dd1)"><g clip-path="url(#270968f5ff)"><g clip-path="url(#62002e4341)"><path fill="#5ce1e6" d="M 0.660156 0.984375 L 713.394531 0.984375 L 713.394531 115.449219 L 0.660156 115.449219 Z M 0.660156 0.984375 " fill-opacity="1" fill-rule="nonzero"/></g></g></g></g></g></g></g></g></g><g mask="url(#965892f16c)"><g transform="matrix(1, 0, 0, 1, 393, 1050)"><g clip-path="url(#a86d95b3a1)"><g clip-path="url(#3462d5b4dc)"><g clip-path="url(#edf357388a)"><g transform="matrix(1, 0, 0, 1, 0, 1)"><g clip-path="url(#1ea109f6e9)"><g clip-path="url(#da32ddd30d)"><g clip-path="url(#67f35b9b3b)"><path fill="#7ed957" d="M 0.660156 0.0976562 L 713.394531 0.0976562 L 713.394531 114.5625 L 0.660156 114.5625 Z M 0.660156 0.0976562 " fill-opacity="1" fill-rule="nonzero"/></g></g></g></g></g></g></g></g></g></svg>