<svg xmlns="http://www.w3.org/2000/svg" viewBox="0 0 512 512">
  <defs>
    <linearGradient id="grad" x1="0%" y1="0%" x2="100%" y2="100%">
      <stop offset="0%" style="stop-color:#3b82f6;stop-opacity:1" />
      <stop offset="100%" style="stop-color:#1d4ed8;stop-opacity:1" />
    </linearGradient>
  </defs>
  <rect width="512" height="512" rx="64" fill="url(#grad)"/>
  <!-- Cloud shape -->
  <path d="M360 280c0-44.2-35.8-80-80-80-32.3 0-60.1 19.1-72.8 46.6C196.3 238.3 181.4 232 165 232c-38.7 0-70 31.3-70 70s31.3 70 70 70h195c33.1 0 60-26.9 60-60 0-33.1-26.9-60-60-60z" fill="white" fill-opacity="0.95"/>
  <!-- Upload arrow -->
  <path d="M256 190 l40 40 h-25 v50 h-30 v-50 h-25 z" fill="white" fill-opacity="0.9"/>
  <!-- Mosaic tiles at bottom -->
  <rect x="140" y="390" width="45" height="45" rx="8" fill="white" fill-opacity="0.3"/>
  <rect x="195" y="390" width="45" height="45" rx="8" fill="white" fill-opacity="0.4"/>
  <rect x="250" y="390" width="45" height="45" rx="8" fill="white" fill-opacity="0.3"/>
  <rect x="305" y="390" width="45" height="45" rx="8" fill="white" fill-opacity="0.4"/>
</svg>
